{"title":"A Christmas Kiss 2011 DVDrip English Klam","uid":6894671,"size":1156848137,"categoryP":"video","categoryS":"movies","magnet":"?xt=urn:btih:0b7a20256f009e68f3380b2a790e12c42746becc&amp;dn=A+Christmas+Kiss+2011+DVDrip+English+Klam&amp;tr=udp%3A%2F%2Ftracker.openbittorrent.com%3A80&amp;tr=udp%3A%2F%2Fopen.demonii.com%3A1337&amp;tr=udp%3A%2F%2Ftracker.coppersurfer.tk%3A6969&amp;tr=udp%3A%2F%2Fexodus.desync.com%3A6969","seeders":0,"leechers":1,"uploader":"Klambake","files":-1,"time":1324150792,"description":"With: Elisabeth RÃƒÂ¶hm, Laura Breckenridge and Brendan Fehr\n\nWendy Walton is de beste ontwerpster van Boston, maar nog niemand die het weet... In de hoop haar carriÃƒÂ¨re te bevorderen, neemt ze ontslag bij het lokale theater om een baan aan te nemen als de assistente van Priscilla Hall, de meest prestigieuze ontwerpster van de stad. Op een avond komt ze vast te zitten in de lift met een knappe vreemdeling. Wendy en de mysterieuze man verlaten elkaar met een impulsieve, romantische kus. De volgende dag op het werk staat de vreemdeling weer voor de deur. Het blijkt dat het Adam Hughes is, een rijke filantroop en Mevrouw Halls geliefde.\n\nWendy Walton is the best designer in Boston... but no one knows it yet. Hoping to kick-start her career, Wendy has left work with the local theatre to take a job as an assistant to Priscilla Hall, the most prestigious designer in the city. \n\n------------------------ Dutch Friends ------------------------\n---------------------------------------------------------------\n- Bezoek ook eens mijn vrienden op: &lt;a href=&quot; http://www.Film-Test.nl&quot; rel=&quot;nofollow&quot; target=&quot;_NEW&quot;&gt; http://www.Film-Test.nl&lt;/a&gt; --\n----- voor mijn Nederlandse Sync. ondertitels ---- en meer ----\n------- http://www.Film-Test.nl ---- voor Films en meer -------\n---------------------------------------------------------------\n\nGeneral:\n\nComplete name                    : A Christmas Kiss\\A Christmas Kiss.avi\nFormat                           : AVI\nFormat/Info                      : Audio Video Interleave\nFile size                        : 1.08 GiB\nDuration                         : 1h 25mn\nOverall bit rate                 : 1 806 Kbps\n\nVideo:\n\nFormat                           : MPEG-4 Visual\nFormat profile                   : Simple@L3\nFormat settings, BVOP            : No\nFormat settings, QPel            : No\nFormat settings, GMC             : No warppoints\nFormat settings, Matrix          : Default (H.263)\nCodec ID                         : XVID\nCodec ID/Hint                    : XviD\nDuration                         : 1h 25mn\nBit rate                         : 1 571 Kbps\nWidth                            : 704 pixels\nHeight                           : 396 pixels\nDisplay aspect ratio             : 16:9\nFrame rate                       : 25.000 fps\nColor space                      : YUV\nChroma subsampling               : 4:2:0\nBit depth                        : 8 bits\nScan type                        : Progressive\nCompression mode                 : Lossy\nBits/(Pixel*Frame)               : 0.225\nStream size                      : 960 MiB (87%)\nWriting library                  : XviD 1.1.2 (UTC 2006-11-01)\n\nAudio:\n\nFormat                           : AC-3\nFormat/Info                      : Audio Coding 3\nMode extension                   : CM (complete main)\nCodec ID                         : 2000\nDuration                         : 1h 25mn\nBit rate mode                    : Constant\nBit rate                         : 224 Kbps\nChannel(s)                       : 2 channels\nChannel positions                : Front: L R\nSampling rate                    : 48.0 KHz\nBit depth                        : 16 bits\nCompression mode                 : Lossy\nStream size                      : 137 MiB (12%)\nAlignment                        : Aligned on interleaves\nInterleave, duration             : 32 ms (0.80 video frame)\nInterleave, preload duration     : 96 ms\n","torrent":{"xt":"urn:btih:0b7a20256f009e68f3380b2a790e12c42746becc","amp;dn":"A+Christmas+Kiss+2011+DVDrip+English+Klam","amp;tr":["udp%3A%2F%2Ftracker.openbittorrent.com%3A80","udp%3A%2F%2Fopen.demonii.com%3A1337","udp%3A%2F%2Ftracker.coppersurfer.tk%3A6969","udp%3A%2F%2Fexodus.desync.com%3A6969"],"infoHash":"0b7a20256f009e68f3380b2a790e12c42746becc","infoHashBuffer":{"type":"Buffer","data":[11,122,32,37,111,0,158,104,243,56,11,42,121,14,18,196,39,70,190,204]},"announce":[],"urlList":[]}}